<svg width="519" height="48" viewBox="0 0 519 48" fill="none" xmlns="http://www.w3.org/2000/svg">
<path d="M7.67823 45.9493C5.12967 45.7571 3.06615 45.6602 1.48768 45.6585L0.690707 45.674C0.921794 44.3005 1.35068 41.4977 1.97735 37.2656C2.60372 33.0174 2.96779 30.6105 3.06958 30.0448C3.18216 29.2051 3.59319 27.1435 4.30268 23.8602C5.02827 20.5765 5.58461 18.1175 5.97171 16.4832L8.09136 16.1522C8.5725 16.0463 10.5329 15.807 13.9724 15.4343C14.21 16.0578 14.7407 17.2636 15.5646 19.0516C16.4043 20.8231 17.3949 22.9058 18.5365 25.2997C19.6779 27.6774 20.4251 29.2495 20.7782 30.0157C22.6145 34.1839 23.9332 37.4039 24.7343 39.6755C25.5656 41.8498 26.0334 43.1293 26.1374 43.5138C26.073 43.5151 26.009 43.5324 25.9452 43.5659C25.4009 43.7375 24.8087 43.9342 24.1688 44.156C23.5449 44.3775 23.0008 44.5571 22.5364 44.695C22.0719 44.8328 21.4708 44.9814 20.733 45.1406C20.3171 44.4561 19.9433 43.8674 19.6116 43.3745C19.2957 42.8653 19.113 42.5789 19.0634 42.5154C19.0136 42.4359 18.9386 42.3085 18.8386 42.1332C18.7382 41.9419 18.6713 41.8143 18.6379 41.7506C18.6205 41.6865 18.4863 41.4072 18.2351 40.9128C18 40.418 17.7069 39.8358 17.3557 39.1661L16.5728 37.4176C16.4285 37.4527 15.3127 37.6353 13.2252 37.9657C11.1375 38.28 9.90101 38.4731 9.51585 38.5449C9.26323 38.8075 8.93532 39.7561 8.53212 41.3907C8.14502 43.025 7.86039 44.5445 7.67823 45.9493ZM11.7774 24.3435L10.3182 33.8182L11.1123 33.6579L14.7 33.0327C13.2127 29.4214 12.2385 26.525 11.7774 24.3435ZM29.3954 45.7701C29.2988 45.7719 28.7507 45.7503 27.7513 45.7053L27.6547 45.7071L27.6054 45.6598L27.5571 45.6607C27.3048 39.2874 27.0827 34.4759 26.8908 31.2261L26.3163 21.525C26.2874 20.8651 26.2444 19.8915 26.1872 18.6041C26.1462 17.3164 26.1113 16.3507 26.0828 15.707C27.7482 15.2076 28.8535 14.8963 29.3987 14.773C29.96 14.6493 30.5144 14.5822 31.0618 14.5716C31.1906 14.5691 31.5611 14.57 32.1732 14.5742C32.7854 14.5785 33.3732 14.5751 33.9367 14.5642C34.4194 14.5388 35.1031 14.4933 35.9876 14.4278C36.8722 14.3624 37.6765 14.3065 38.4004 14.2603C39.1243 14.214 39.8081 14.1766 40.4518 14.148L46.2628 17.297L47.2267 18.4138L47.6727 18.985L48.8986 21.1598C49.0781 22.1066 49.2646 23.005 49.4582 23.8549C49.6519 24.7048 49.7846 25.3223 49.8565 25.7075C49.9442 26.0762 49.991 26.4135 49.9969 26.7195C50.0032 27.0415 49.9624 27.4288 49.8745 27.8815C49.8024 28.3178 49.6991 28.803 49.5645 29.3371C49.4295 29.8551 49.2131 30.7371 48.9151 31.9831C48.6332 33.2288 48.3445 34.539 48.049 35.9138C47.8469 36.2881 47.6123 36.647 47.3451 36.9904C47.0941 37.3335 46.7559 37.7508 46.3305 38.2423C45.9048 38.7176 45.629 39.029 45.503 39.1764L42.0481 42.9156L38.7643 44.2597L32.5024 45.275C30.7209 45.5994 29.6852 45.7644 29.3954 45.7701ZM35.0133 36.4563L35.0779 37.3006C35.1101 37.3 35.142 37.2833 35.1736 37.2505L39.1377 34.8543L40.9803 32.6925L41.9339 30.7896C42.0101 30.5626 42.0862 30.3357 42.1624 30.1087C42.2543 29.8653 42.3078 29.7193 42.323 29.6707C42.3542 29.6218 42.3849 29.5407 42.4149 29.4273C42.4446 29.2979 42.4593 29.2251 42.459 29.209C42.4584 29.1768 42.4646 29.0801 42.4775 28.9188C42.5063 28.741 42.5193 28.5797 42.5165 28.4348C42.5295 28.2735 42.5567 28.0153 42.5981 27.6601C42.6556 27.3046 42.7124 26.9089 42.7684 26.473L41.9562 24.4593C41.793 24.3497 41.6461 24.2479 41.5154 24.1538C41.4006 24.0432 41.2615 23.9332 41.0983 23.8236C40.9351 23.714 40.6828 23.5739 40.3412 23.4034L38.2535 22.8882C36.9305 22.7689 35.6579 22.7613 34.4358 22.8655C34.4402 23.0909 34.5125 24.3297 34.6528 26.5819C34.8089 28.8177 34.8936 30.2818 34.907 30.9741L35.0133 36.4563ZM57.8171 44.9777C55.2685 44.7855 53.205 44.6886 51.6266 44.6869L50.8296 44.7024C51.0607 43.3288 51.4895 40.526 52.1162 36.294C52.7426 32.0458 53.1067 29.6389 53.2084 29.0732C53.321 28.2335 53.7321 26.1719 54.4415 22.8886C55.1671 19.6049 55.7235 17.1459 56.1106 15.5116L58.2302 15.1806C58.7114 15.0747 60.6717 14.8354 64.1113 14.4627C64.3489 15.0862 64.8796 16.292 65.7035 18.08C66.5431 19.8515 67.5338 21.9342 68.6754 24.3281C69.8167 26.7058 70.5639 28.2778 70.917 29.0441C72.7534 33.2123 74.0721 36.4323 74.8731 38.7039C75.7045 40.8782 76.1722 42.1577 76.2763 42.5422C76.2119 42.5435 76.1478 42.5608 76.084 42.5943C75.5398 42.7659 74.9476 42.9626 74.3077 43.1844C73.6838 43.4059 73.1397 43.5855 72.6752 43.7234C72.2108 43.8612 71.6097 44.0098 70.8719 44.169C70.456 43.4845 70.0822 42.8958 69.7505 42.4029C69.4346 41.8937 69.2519 41.6073 69.2023 41.5438C69.1524 41.4642 69.0775 41.3368 68.9775 41.1616C68.8771 40.9703 68.8102 40.8427 68.7768 40.7789C68.7594 40.7148 68.6252 40.4356 68.374 39.9412C68.1389 39.4464 67.8457 38.8642 67.4945 38.1945L66.7117 36.446C66.5674 36.481 65.4516 36.6637 63.3641 36.9941C61.2763 37.3084 60.0399 37.5014 59.6547 37.5733C59.4021 37.8359 59.0742 38.7845 58.671 40.4191C58.2839 42.0534 57.9993 43.5729 57.8171 44.9777ZM61.9163 23.3719L60.457 32.8466L61.2512 32.6863L64.8389 32.0611C63.3515 28.4498 62.3773 25.5534 61.9163 23.3719ZM95.7908 37.163L96.127 37.0598L96.8729 36.9004C96.9045 36.8676 96.9686 36.8503 97.0652 36.8484L96.9395 37.8414C96.8821 39.0344 96.8345 39.905 96.7968 40.4534C96.7752 41.0014 96.7573 41.3239 96.7431 41.4208C96.7285 41.5016 96.7132 41.5422 96.6971 41.5425C96.7306 41.6063 96.7078 42.9275 96.629 45.506C96.0654 45.517 95.6385 45.5091 95.348 45.4825C94.7675 45.4455 92.9123 45.2962 89.7826 45.0347C86.669 44.7729 84.0495 44.6626 81.9242 44.7038C81.1514 44.7188 79.9445 44.7744 78.3035 44.8706C78.4222 43.5154 78.4935 40.9611 78.5174 37.2078C78.3957 30.9286 78.2589 27.1945 78.1071 26.0056C77.9709 24.8003 77.845 21.2109 77.7293 15.2377C78.0674 15.2311 79.5079 15.179 82.0508 15.0814C84.6099 14.9835 86.1712 14.9291 86.7347 14.9182C86.7027 16.5939 86.6727 17.5367 86.6445 17.7466C86.648 17.9237 86.6212 19.0356 86.5642 21.0822C86.523 23.1125 86.5011 24.4739 86.4984 25.1665C86.6556 26.6292 86.7523 28.2943 86.7885 30.162C86.8574 33.7202 86.8864 36.047 86.8754 37.1425C87.3907 37.1325 88.5991 37.1574 90.5009 37.2172C92.4026 37.277 93.5386 37.3033 93.9089 37.2961C94.247 37.2895 94.7858 37.2469 95.5252 37.1681L95.7908 37.163ZM99.3209 17.3077C99.2773 15.8912 99.1559 14.6131 98.9567 13.4733C98.7571 12.3175 98.6136 11.1446 98.5261 9.95436C98.5577 9.92154 98.6137 9.90434 98.6942 9.90278C101.127 9.11474 103.716 8.46863 106.46 7.96446C106.497 8.20535 106.596 8.743 106.757 9.57742C106.934 10.3954 107.096 11.2459 107.242 12.129C107.388 13.012 107.501 13.8554 107.581 14.6592C107.132 14.7967 106.332 15.0458 105.179 15.4064C104.026 15.7669 102.946 16.11 101.937 16.4356C100.929 16.745 100.057 17.0357 99.3209 17.3077ZM100.087 44.3519C100.045 42.2105 99.9525 39.0957 99.8089 35.0074C99.6649 30.903 99.5294 27.2333 99.4022 23.9984C99.2751 20.7634 99.2108 19.1057 99.2092 19.0252C99.6938 19.0964 99.9763 19.1311 100.057 19.1296C101.041 19.1911 101.822 19.2323 102.403 19.2532C102.999 19.2578 103.377 19.2505 103.538 19.2312C103.715 19.2117 104.061 19.2292 104.578 19.2836C105.094 19.3219 105.877 19.4034 106.926 19.528C106.991 19.5589 107.096 19.573 107.241 19.5702C107.456 24.0114 107.57 26.6024 107.585 27.343C107.588 27.4879 107.643 32.8262 107.75 43.3578C107.67 43.3915 107.558 43.4259 107.414 43.4609C107.27 43.4959 106.941 43.5909 106.429 43.7458C105.932 43.8842 105.324 44.0571 104.603 44.2643C104.345 44.2371 103.563 44.2362 102.259 44.2614C101.036 44.2851 100.311 44.3153 100.087 44.3519ZM110.303 44.1539C110.282 43.0751 110.208 40.9102 110.081 37.6592C109.969 34.4078 109.895 31.792 109.856 29.8116C109.759 24.7721 109.826 20.3496 110.058 16.544C112.329 16.5483 114.916 16.6511 117.819 16.8526L117.943 16.9952L124.749 31.6007L125.527 33.0836C125.441 22.8254 125.388 17.6079 125.369 17.4311L125.362 17.093C125.539 17.1057 126.458 17.1442 128.118 17.2087C129.794 17.2567 130.874 17.2922 131.358 17.315C131.353 17.9111 131.391 21.1236 131.472 26.9526C131.569 32.7652 131.615 35.9856 131.611 36.6138C131.683 40.3491 131.711 42.5955 131.693 43.3528C129.938 43.3546 127.321 43.3892 123.843 43.4566C123.674 43.0089 123.496 42.5453 123.309 42.0657C123.122 41.57 123.004 41.2663 122.953 41.1545C122.919 41.0424 122.834 40.8347 122.7 40.5313C122.565 40.2279 122.464 40.0365 122.399 39.9573C122.349 39.8777 122.199 39.6471 121.95 39.2653C121.717 38.8672 121.484 38.5012 121.252 38.1675C121.037 37.8334 120.68 37.2847 120.182 36.5212C119.7 35.7574 119.193 34.9458 118.661 34.0864C117.83 32.7657 116.956 31.3008 116.039 29.6918L116.228 36.9602L116.022 43.8014C113.511 43.8501 111.813 43.9474 110.93 44.0934C110.64 44.099 110.431 44.1192 110.303 44.1539ZM140.803 43.3696C138.254 43.1773 136.191 43.0804 134.612 43.0788L133.815 43.0942C134.046 41.7207 134.475 38.9179 135.102 34.6859C135.728 30.4377 136.092 28.0308 136.194 27.4651C136.307 26.6253 136.718 24.5638 137.427 21.2804C138.153 17.9967 138.709 15.5378 139.096 13.9035L141.216 13.5725C141.697 13.4665 143.658 13.2272 147.097 12.8545C147.335 13.4781 147.865 14.6839 148.689 16.4718C149.529 18.2434 150.52 20.3261 151.661 22.7199C152.803 25.0977 153.55 26.6697 153.903 27.436C155.739 31.6042 157.058 34.8241 157.859 37.0957C158.69 39.2701 159.158 40.5496 159.262 40.9341C159.198 40.9354 159.134 40.9527 159.07 40.9861C158.526 41.1578 157.933 41.3545 157.293 41.5762C156.67 41.7977 156.125 41.9774 155.661 42.1152C155.197 42.2531 154.596 42.4016 153.858 42.5609C153.442 41.8764 153.068 41.2877 152.736 40.7948C152.42 40.2855 152.238 39.9991 152.188 39.9357C152.138 39.8561 152.063 39.7287 151.963 39.5535C151.863 39.3621 151.796 39.2346 151.763 39.1708C151.745 39.1067 151.611 38.8275 151.36 38.333C151.125 37.8383 150.832 37.2561 150.48 36.5864L149.698 34.8379C149.553 34.8729 148.437 35.0556 146.35 35.386C144.262 35.7002 143.026 35.8933 142.641 35.9652C142.388 36.2278 142.06 37.1764 141.657 38.811C141.27 40.4452 140.985 41.9648 140.803 43.3696ZM144.902 21.7637L143.443 31.2385L144.237 31.0781L147.825 30.4529C146.337 26.8417 145.363 23.9453 144.902 21.7637ZM175.127 42.8977C175.143 40.417 175.191 38.3222 175.271 36.6134C175.346 33.8577 175.712 26.5463 176.368 14.6791C177.108 14.6326 178.538 14.4841 180.66 14.2336C180.98 14.1629 181.462 14.0892 182.105 14.0123L182.109 14.2055L182.362 14.8046C183.4 16.0086 185.66 17.9137 189.141 20.5199L189.496 20.1506C190.127 19.4941 190.719 18.8303 191.269 18.1593C191.836 17.4719 192.472 16.6622 193.179 15.7305C193.902 14.7984 194.507 14.0297 194.995 13.4243C195.622 13.3799 196.58 13.3452 197.868 13.3203L200.286 13.4184C200.374 13.8032 200.51 14.5898 200.694 15.7781C200.825 17.5795 201.018 19.6455 201.273 21.976C201.527 24.2904 201.838 27.0064 202.204 30.124C202.57 33.2254 202.811 35.2743 202.927 36.2707C203.046 37.3959 203.19 39.0279 203.36 41.1667C201.927 41.1945 200.167 41.3736 198.08 41.7039L198.073 41.3658C197.768 37.2646 197.147 31.8004 196.209 24.9733C196.178 25.0061 196.162 25.0386 196.163 25.0708L194.682 27.1773C194.415 27.5529 194.03 28.0596 193.527 28.6976C193.04 29.3351 192.577 29.932 192.136 30.4882C191.696 31.0443 191.445 31.3633 191.382 31.445C189.774 31.605 188.906 31.6863 188.777 31.6888L186.361 29.1747C186.064 28.8261 185.603 28.3115 184.978 27.6311C184.353 26.9345 183.801 26.309 183.323 25.7545C182.845 25.2 182.4 24.6691 181.988 24.1617C181.956 25.0482 181.902 26.4102 181.825 28.2478C181.748 30.0694 181.676 31.7781 181.61 33.3739C181.545 34.9697 181.505 35.8563 181.493 36.0337C181.424 36.6632 181.347 37.6633 181.261 39.0341C181.175 40.4048 181.088 41.3406 181.001 41.8416C179.215 41.9246 177.641 42.1564 176.279 42.5371C176.006 42.5746 175.622 42.6948 175.127 42.8977ZM212.316 41.9837C209.768 41.7915 207.704 41.6946 206.126 41.693L205.329 41.7084C205.56 40.3349 205.989 37.5321 206.615 33.3C207.242 29.0519 207.606 26.645 207.708 26.0793C207.82 25.2395 208.231 23.178 208.941 19.8946C209.666 16.6109 210.223 14.1519 210.61 12.5177L212.729 12.1867C213.21 12.0807 215.171 11.8414 218.61 11.4687C218.848 12.0923 219.379 13.298 220.203 15.086C221.042 16.8576 222.033 18.9403 223.174 21.3341C224.316 23.7119 225.063 25.2839 225.416 26.0502C227.252 30.2184 228.571 33.4383 229.372 35.7099C230.204 37.8843 230.671 39.1637 230.775 39.5483C230.711 39.5495 230.647 39.5669 230.583 39.6003C230.039 39.7719 229.447 39.9686 228.807 40.1904C228.183 40.4119 227.639 40.5916 227.174 40.7294C226.71 40.8673 226.109 41.0158 225.371 41.1751C224.955 40.4906 224.581 39.9019 224.25 39.409C223.934 38.8997 223.751 38.6133 223.701 38.5499C223.651 38.4703 223.577 38.3429 223.477 38.1677C223.376 37.9763 223.309 37.8488 223.276 37.785C223.258 37.7209 223.124 37.4416 222.873 36.9472C222.638 36.4525 222.345 35.8702 221.994 35.2006L221.211 33.4521C221.066 33.4871 219.951 33.6698 217.863 34.0002C215.775 34.3144 214.539 34.5075 214.154 34.5794C213.901 34.842 213.573 35.7906 213.17 37.4252C212.783 39.0594 212.498 40.5789 212.316 41.9837ZM216.415 20.3779L214.956 29.8527L215.75 29.6923L219.338 29.0671C217.851 25.4559 216.876 22.5595 216.415 20.3779ZM234.033 41.8045C233.937 41.8064 233.389 41.7848 232.389 41.7397L232.293 41.7416L232.243 41.6942L232.195 41.6952C231.943 35.3219 231.721 30.5103 231.529 27.2605L230.954 17.5594C230.925 16.8996 230.882 15.926 230.825 14.6386C230.784 13.3508 230.749 12.3851 230.721 11.7414C232.386 11.242 233.491 10.9307 234.037 10.8074C234.598 10.6838 235.152 10.6167 235.7 10.606C235.829 10.6036 236.199 10.6044 236.811 10.6087C237.423 10.6129 238.011 10.6096 238.575 10.5987C239.057 10.5732 239.741 10.5277 240.626 10.4623C241.51 10.3968 242.314 10.341 243.038 10.2947C243.762 10.2485 244.446 10.2111 245.09 10.1825L250.901 13.3315L251.865 14.4483L252.311 15.0195L253.537 17.1943C253.716 18.1411 253.903 19.0394 254.096 19.8893C254.29 20.7392 254.423 21.3567 254.494 21.7419C254.582 22.1107 254.629 22.448 254.635 22.7539C254.641 23.0759 254.6 23.4633 254.512 23.9159C254.44 24.3522 254.337 24.8374 254.202 25.3715C254.067 25.8896 253.851 26.7716 253.553 28.0175C253.271 29.2632 252.982 30.5734 252.687 31.9482C252.485 32.3226 252.25 32.6815 251.983 33.0249C251.732 33.368 251.394 33.7853 250.968 34.2767C250.543 34.752 250.267 35.0634 250.141 35.2108L246.686 38.95L243.402 40.2942L237.14 41.3094C235.359 41.6339 234.323 41.7989 234.033 41.8045ZM239.651 32.4907L239.716 33.3351C239.748 33.3345 239.78 33.3177 239.812 33.2849L243.776 30.8888L245.618 28.727L246.572 26.824C246.648 26.5971 246.724 26.3701 246.8 26.1431C246.892 25.8998 246.946 25.7538 246.961 25.7051C246.992 25.6562 247.023 25.5751 247.053 25.4618C247.083 25.3323 247.097 25.2596 247.097 25.2435C247.096 25.2113 247.102 25.1145 247.115 24.9532C247.144 24.7755 247.157 24.6141 247.154 24.4692C247.167 24.3079 247.195 24.0497 247.236 23.6945C247.294 23.3391 247.35 22.9434 247.406 22.5074L246.594 20.4937C246.431 20.3841 246.284 20.2823 246.153 20.1882C246.038 20.0777 245.899 19.9676 245.736 19.858C245.573 19.7485 245.321 19.6084 244.979 19.4378L242.891 18.9226C241.568 18.8033 240.296 18.7957 239.074 18.9C239.078 19.1254 239.15 20.3642 239.291 22.6164C239.447 24.8522 239.532 26.3162 239.545 27.0085L239.651 32.4907ZM258.291 41.8418C258.189 39.8788 258.128 38.4062 258.109 37.4241C257.776 31.8416 257.583 28.1327 257.531 26.2976C257.386 22.1449 256.994 16.4347 256.354 9.16694C257.435 9.29094 259.425 9.34901 262.324 9.34115C265.224 9.33329 267.133 9.36072 268.052 9.42344C268.584 9.44534 269.293 9.47992 270.18 9.52716C271.083 9.57409 271.857 9.62351 272.502 9.67544C273.147 9.71126 273.494 9.7287 273.542 9.72776C273.605 9.66211 273.616 9.79881 273.574 10.1379C273.548 10.4605 273.45 11.2033 273.279 12.3663C273.035 13.885 272.893 14.9025 272.855 15.4186C272.517 15.4252 272.058 15.426 271.478 15.4212C270.898 15.4163 270.471 15.4165 270.198 15.4218C269.441 15.4365 268.516 15.5027 267.423 15.6205L266.146 15.7902C266.147 15.8385 266.153 16.1767 266.166 16.8046C266.194 17.4161 266.215 18.1243 266.231 18.9294C266.262 19.718 266.283 20.3538 266.292 20.8368C266.629 20.782 267.393 20.7188 268.584 20.6474C269.774 20.5761 270.74 20.5412 271.481 20.543L272.299 24.1028C272.542 25.0161 272.664 25.505 272.665 25.5694C272.685 25.7301 272.756 26.0911 272.88 26.6525C272.882 26.7813 272.9 26.8776 272.933 26.9413C270.731 27.129 268.591 27.2912 266.516 27.4281C266.527 27.9755 266.588 29.0213 266.698 30.5654C266.808 32.1094 266.869 33.1552 266.88 33.7026C268.003 33.5198 269.853 33.4034 272.43 33.3535C273.895 33.3251 274.997 33.2634 275.736 33.1686C276.075 33.1942 276.405 33.1878 276.726 33.1494C276.838 33.1311 276.903 33.1299 276.919 33.1457C276.952 33.1611 276.969 33.2172 276.971 33.3138C276.98 33.7646 277.039 34.3352 277.149 35.0257C277.221 35.3947 277.398 36.6798 277.683 38.8809C276.862 38.929 275.472 39.0687 273.511 39.3C271.551 39.5312 270.209 39.678 269.485 39.7404C269.067 39.7807 268.272 39.8927 267.1 40.0765C265.927 40.2442 264.859 40.4099 263.896 40.5735L262.475 40.8185C261.882 40.9588 261.369 41.0734 260.936 41.1624C260.518 41.2349 260.254 41.2803 260.141 41.2986C260.029 41.3169 259.892 41.3437 259.732 41.379C259.588 41.414 259.468 41.4485 259.372 41.4826C259.276 41.5328 259.06 41.6255 258.725 41.7609C258.581 41.812 258.436 41.839 258.291 41.8418ZM297.144 33.2611L297.48 33.1579L298.226 32.9985C298.258 32.9657 298.322 32.9483 298.419 32.9465L298.293 33.9395C298.235 35.1325 298.188 36.0031 298.15 36.5515C298.129 37.0995 298.111 37.422 298.096 37.5189C298.082 37.5997 298.067 37.6403 298.051 37.6406C298.084 37.7044 298.061 39.0256 297.982 41.6041C297.419 41.6151 296.992 41.6072 296.701 41.5806C296.121 41.5436 294.266 41.3943 291.136 41.1328C288.022 40.871 285.403 40.7607 283.278 40.8019C282.505 40.8169 281.298 40.8725 279.657 40.9687C279.776 39.6135 279.847 37.0592 279.871 33.3059C279.749 27.0267 279.612 23.2926 279.46 22.1037C279.324 20.8983 279.198 17.309 279.083 11.3357C279.421 11.3292 280.861 11.2771 283.404 11.1795C285.963 11.0816 287.525 11.0272 288.088 11.0163C288.056 12.692 288.026 13.6348 287.998 13.8447C288.001 14.0218 287.975 15.1337 287.918 17.1803C287.876 19.2106 287.855 20.572 287.852 21.2646C288.009 22.7273 288.106 24.3924 288.142 26.2601C288.211 29.8183 288.24 32.1451 288.229 33.2406C288.744 33.2306 289.953 33.2555 291.854 33.3153C293.756 33.3751 294.892 33.4014 295.262 33.3942C295.6 33.3876 296.139 33.345 296.879 33.2662L297.144 33.2611ZM300.674 13.4058C300.631 11.9893 300.509 10.7111 300.31 9.57144C300.111 8.41564 299.967 7.24264 299.88 6.05245C299.911 6.01963 299.967 6.00243 300.048 6.00087C302.481 5.21283 305.069 4.56672 307.814 4.06255C307.851 4.30344 307.95 4.84109 308.111 5.67551C308.288 6.49351 308.449 7.34403 308.595 8.22706C308.741 9.11009 308.854 9.9535 308.934 10.7573C308.486 10.8948 307.685 11.1439 306.532 11.5044C305.38 11.865 304.299 12.2081 303.291 12.5337C302.282 12.8431 301.41 13.1338 300.674 13.4058ZM301.44 40.4499C301.399 38.3086 301.306 35.1938 301.162 31.1055C301.018 27.0011 300.883 23.3314 300.756 20.0965C300.629 16.8615 300.564 15.2038 300.563 15.1233C301.047 15.1944 301.33 15.2292 301.41 15.2277C302.394 15.2891 303.176 15.3304 303.756 15.3513C304.352 15.3559 304.731 15.3486 304.891 15.3293C305.068 15.3098 305.415 15.3272 305.931 15.3817C306.447 15.42 307.23 15.5015 308.279 15.6261C308.344 15.657 308.449 15.6711 308.594 15.6683C308.809 20.1095 308.924 22.7005 308.938 23.4411C308.941 23.586 308.996 28.9242 309.104 39.4558C309.024 39.4896 308.912 39.524 308.767 39.559C308.623 39.594 308.295 39.689 307.782 39.8438C307.286 39.9823 306.677 40.1552 305.956 40.3624C305.698 40.3352 304.917 40.3342 303.613 40.3595C302.389 40.3832 301.665 40.4134 301.44 40.4499ZM311.657 40.252C311.636 39.1732 311.562 37.0083 311.434 33.7573C311.323 30.5059 311.248 27.8901 311.21 25.9097C311.112 20.8702 311.179 16.4477 311.412 12.642C313.683 12.6464 316.27 12.7492 319.173 12.9507L319.296 13.0932L326.103 27.6988L326.88 29.1817C326.794 18.9235 326.741 13.706 326.722 13.5292L326.715 13.1911C326.893 13.2037 327.812 13.2423 329.472 13.3068C331.148 13.3548 332.228 13.3903 332.711 13.4131C332.707 14.0092 332.745 17.2217 332.826 23.0507C332.922 28.8633 332.968 32.0837 332.965 32.7119C333.037 36.4472 333.064 38.6935 333.047 39.4509C331.291 39.4527 328.675 39.4873 325.197 39.5547C325.027 39.107 324.849 38.6434 324.663 38.1638C324.476 37.6681 324.357 37.3644 324.307 37.2526C324.272 37.1405 324.188 36.9328 324.053 36.6294C323.918 36.326 323.818 36.1346 323.752 36.0554C323.702 35.9758 323.553 35.7451 323.304 35.3634C323.07 34.9653 322.838 34.5993 322.606 34.2656C322.39 33.9315 322.033 33.3828 321.535 32.6193C321.053 31.8555 320.546 31.0439 320.014 30.1845C319.183 28.8637 318.309 27.3989 317.392 25.7899L317.581 33.0583L317.376 39.8995C314.864 39.9482 313.167 40.0455 312.284 40.1915C311.994 40.1971 311.785 40.2173 311.657 40.252ZM336.495 40.3263C336.393 38.3633 336.332 36.8907 336.313 35.9086C335.98 30.3261 335.787 26.6173 335.735 24.7821C335.59 20.6294 335.198 14.9192 334.558 7.65147C335.639 7.77547 337.629 7.83354 340.528 7.82568C343.427 7.81782 345.337 7.84525 346.256 7.90797C346.788 7.92987 347.497 7.96445 348.384 8.01169C349.287 8.05862 350.061 8.10804 350.706 8.15997C351.351 8.19579 351.698 8.21323 351.746 8.21229C351.809 8.14664 351.82 8.28334 351.778 8.62239C351.752 8.94502 351.654 9.68783 351.483 10.8508C351.239 12.3696 351.097 13.387 351.059 13.9032C350.721 13.9097 350.262 13.9106 349.682 13.9057C349.102 13.9008 348.675 13.901 348.402 13.9063C347.645 13.921 346.72 13.9872 345.627 14.1051L344.35 14.2748C344.351 14.3231 344.357 14.6612 344.37 15.2891C344.398 15.9006 344.419 16.6089 344.435 17.4139C344.466 18.2025 344.487 18.8383 344.496 19.3213C344.833 19.2665 345.597 19.2034 346.788 19.132C347.978 19.0606 348.944 19.0258 349.685 19.0275L350.503 22.5873C350.746 23.5007 350.868 23.9896 350.869 24.054C350.888 24.2147 350.96 24.5757 351.084 25.137C351.086 25.2658 351.104 25.3621 351.137 25.4259C348.934 25.6135 346.795 25.7758 344.72 25.9126C344.731 26.46 344.792 27.5058 344.902 29.0499C345.012 30.594 345.073 31.6397 345.084 32.1871C346.207 32.0043 348.057 31.8879 350.634 31.838C352.099 31.8096 353.201 31.748 353.94 31.6531C354.279 31.6788 354.609 31.6724 354.93 31.6339C355.042 31.6156 355.107 31.6144 355.123 31.6302C355.156 31.6457 355.173 31.7017 355.175 31.7983C355.184 32.2491 355.243 32.8198 355.353 33.5102C355.425 33.8793 355.602 35.1643 355.887 37.3654C355.066 37.4135 353.676 37.5532 351.715 37.7845C349.755 38.0158 348.413 38.1626 347.689 38.2249C347.271 38.2652 346.476 38.3773 345.304 38.5611C344.131 38.7287 343.063 38.8944 342.1 39.058L340.679 39.303C340.086 39.4433 339.573 39.558 339.14 39.6469C338.722 39.7194 338.458 39.7648 338.345 39.7831C338.233 39.8014 338.096 39.8282 337.936 39.8635C337.792 39.8985 337.672 39.9331 337.576 39.9671C337.48 40.0173 337.264 40.1101 336.929 40.2454C336.785 40.2965 336.64 40.3235 336.495 40.3263ZM357.658 28.9718L359.795 23.3253L364.885 22.9368C373.161 22.7764 377.726 22.704 378.58 22.7197L375.616 28.1165C374.763 28.133 371.866 28.2536 366.926 28.4781C361.985 28.6866 358.896 28.8512 357.658 28.9718ZM380.674 28.5258L382.812 22.8793L387.902 22.4907C396.178 22.3304 400.743 22.258 401.596 22.2737L398.633 27.6704C397.779 27.687 394.883 27.8075 389.942 28.0321C385.002 28.2406 381.912 28.4052 380.674 28.5258ZM410.854 37.3874L410.872 38.3293C408.641 37.8894 406.59 37.6472 404.721 37.6029C404.641 33.4651 404.44 28.0975 404.119 21.5C403.798 14.8864 403.527 10.4704 403.307 8.252L407.581 8.16917C407.759 8.19793 408.115 8.28767 408.65 8.43838C409.2 8.57268 409.701 8.67571 410.154 8.74748C410.606 8.81924 411.017 8.82739 411.386 8.77191L411.388 8.86851C411.177 11.2564 411.114 14.6722 411.2 19.1159C412.39 19.0284 413.646 18.9719 414.966 18.9463C415.884 18.9285 417.068 18.9378 418.518 18.9741L418.405 18.1549C418.097 13.8765 417.738 9.92123 417.33 6.28907C418.357 6.092 419.802 5.86266 421.665 5.60106C423.528 5.33946 424.701 5.18788 425.184 5.14632C425.452 7.34772 425.638 11.1211 425.741 16.4665C425.769 17.8994 425.783 20.7017 425.783 24.8733C425.8 29.0445 425.792 31.5734 425.761 32.4599C425.697 34.9415 425.657 36.2389 425.643 36.3519L424.196 36.4766C422.571 36.5564 421.127 36.834 419.864 37.3095L419.714 37.0708C419.579 36.7674 419.471 36.1413 419.388 35.1926C419.326 32.0047 419.199 28.3832 419.008 24.3281C417.657 24.4348 415.077 24.7103 411.269 25.1545C411.221 25.1555 411.18 25.9777 411.148 27.6212C411.131 29.2644 411.103 31.1172 411.062 33.1796C411.021 35.242 410.952 36.6446 410.854 37.3874ZM429.431 38.5253C429.329 36.5623 429.268 35.0898 429.249 34.1076C428.915 28.5251 428.723 24.8163 428.671 22.9812C428.526 18.8285 428.134 13.1183 427.494 5.85052C428.575 5.97452 430.565 6.03259 433.464 6.02473C436.363 6.01687 438.273 6.0443 439.192 6.10702C439.724 6.12892 440.433 6.1635 441.32 6.21074C442.223 6.25767 442.997 6.30709 443.642 6.35902C444.287 6.39484 444.634 6.41228 444.682 6.41134C444.745 6.34569 444.756 6.48239 444.714 6.82144C444.688 7.14407 444.59 7.88688 444.419 9.04986C444.175 10.5686 444.033 11.5861 443.995 12.1022C443.657 12.1088 443.198 12.1096 442.618 12.1047C442.038 12.0999 441.611 12.1001 441.337 12.1054C440.581 12.1201 439.656 12.1863 438.563 12.3041L437.286 12.4738C437.287 12.5221 437.293 12.8602 437.305 13.4882C437.333 14.0997 437.355 14.8079 437.371 15.613C437.402 16.4016 437.423 17.0374 437.432 17.5204C437.769 17.4655 438.533 17.4024 439.723 17.331C440.914 17.2596 441.88 17.2248 442.621 17.2266L443.439 20.7864C443.682 21.6997 443.804 22.1886 443.805 22.253C443.824 22.4137 443.896 22.7747 444.019 23.3361C444.022 23.4649 444.04 23.5611 444.073 23.6249C441.87 23.8126 439.731 23.9748 437.656 24.1117C437.667 24.6591 437.727 25.7048 437.838 27.2489C437.948 28.793 438.009 29.8388 438.019 30.3862C439.143 30.2033 440.993 30.087 443.569 30.037C445.035 30.0086 446.137 29.947 446.876 29.8522C447.214 29.8778 447.545 29.8714 447.866 29.833C447.978 29.8147 448.043 29.8134 448.059 29.8292C448.092 29.8447 448.109 29.9008 448.111 29.9974C448.119 30.4482 448.179 31.0188 448.289 31.7093C448.36 32.0783 448.538 33.3634 448.823 35.5645C448.002 35.6126 446.612 35.7523 444.651 35.9836C442.691 36.2148 441.349 36.3616 440.625 36.424C440.207 36.4643 439.412 36.5763 438.24 36.7601C437.067 36.9278 435.999 37.0934 435.036 37.2571L433.615 37.502C433.022 37.6424 432.509 37.757 432.076 37.8459C431.658 37.9185 431.394 37.9639 431.281 37.9821C431.169 38.0004 431.032 38.0272 430.872 38.0626C430.728 38.0976 430.608 38.1321 430.512 38.1662C430.416 38.2164 430.2 38.3091 429.865 38.4445C429.721 38.4956 429.576 38.5225 429.431 38.5253ZM468.284 29.9447L468.62 29.8415L469.366 29.6821C469.398 29.6493 469.462 29.6319 469.558 29.6301L469.433 30.623C469.375 31.816 469.328 32.6867 469.29 33.2351C469.269 33.7831 469.251 34.1056 469.236 34.2025C469.222 34.2833 469.207 34.3239 469.19 34.3242C469.224 34.388 469.201 35.7091 469.122 38.2877C468.559 38.2986 468.132 38.2908 467.841 38.2642C467.261 38.2272 465.406 38.0779 462.276 37.8164C459.162 37.5546 456.543 37.4443 454.418 37.4855C453.645 37.5005 452.438 37.5561 450.797 37.6523C450.916 36.297 450.987 33.7428 451.011 29.9895C450.889 23.7103 450.752 19.9762 450.6 18.7873C450.464 17.5819 450.338 13.9926 450.223 8.01932C450.561 8.01277 452.001 7.9607 454.544 7.8631C457.103 7.76519 458.664 7.71077 459.228 7.69985C459.196 9.37555 459.166 10.3184 459.138 10.5283C459.141 10.7054 459.115 11.8173 459.058 13.8639C459.016 15.8941 458.994 17.2556 458.992 17.9482C459.149 19.4108 459.246 21.076 459.282 22.9437C459.351 26.5019 459.38 28.8287 459.369 29.9242C459.884 29.9142 461.092 29.9391 462.994 29.9989C464.896 30.0586 466.032 30.0849 466.402 30.0778C466.74 30.0712 467.279 30.0286 468.018 29.9498L468.284 29.9447ZM478.376 37.0212L473.62 34.6974L472.433 32.0387L471.269 15.6325L472.062 12.8871L474.789 10.225C475.833 10.1081 477.111 9.94647 478.621 9.74004C480.146 9.51719 481.496 9.33803 482.669 9.20255C483.858 9.06676 485.048 8.95512 486.238 8.86763L490.043 10.7267C490.077 10.7905 490.367 11.26 490.916 12.1352L492.785 15.0706C493.243 17.9448 493.552 20.1454 493.71 21.6725C493.868 23.1995 494.042 25.5075 494.231 28.5963L494.403 31.2747L493.116 34.6578L491.659 35.5316C491.242 35.5881 489.192 35.8049 485.511 36.1823C481.83 36.5597 479.452 36.8393 478.376 37.0212ZM479.338 30.576L482.495 30.1525L484.855 29.7685L486.973 29.3409L486.856 28.3043C486.196 22.4865 485.883 18.7961 485.917 17.2331L485.914 17.0882C485.914 17.0721 485.741 16.8661 485.395 16.4701C485.065 16.0578 484.9 15.8435 484.899 15.8274L478.293 17.7674L478.246 17.8167L478.204 20.6442C478.273 21.7381 478.42 23.4989 478.644 25.9267C478.885 28.3541 479.082 29.7999 479.236 30.264C479.252 30.2958 479.27 30.3519 479.287 30.4321C479.305 30.4962 479.322 30.5442 479.338 30.576ZM506.343 36.4309L504.31 36.277L501.628 36.2324L500.335 35.6051L498.882 34.2078L498.21 33.182L497.3 29.8656L497.3 29.8173C496.831 27.2654 496.529 25.3787 496.393 24.1573C496.272 22.9355 496.192 21.3023 496.153 19.2575C496.147 18.9516 496.214 16.1961 496.355 10.9909L496.354 10.9426C496.369 10.9101 496.385 10.8615 496.399 10.7968C496.414 10.7321 496.429 10.6835 496.445 10.6509L496.444 10.6026C496.798 10.6119 497.347 10.6415 498.089 10.6916C498.847 10.7413 499.403 10.7708 499.757 10.78C501.998 10.8655 503.617 10.9146 504.616 10.9275L504.617 10.9758C504.586 11.0086 504.571 11.0894 504.574 11.2182L504.53 16.4376C504.52 19.2725 504.444 21.545 504.299 23.2551C504.036 26.2721 503.881 28.2562 503.835 29.2074L505.646 31.6366C506.58 31.6185 507.521 31.552 508.469 31.437L510.298 31.1116L511.052 28.8743L511.093 28.4628L511.328 25.6557L511.137 18.2665L510.411 14.4875C510.39 13.3765 510.306 12.4037 510.161 11.569L511.605 11.2511C513.354 10.9112 514.961 10.727 516.426 10.6986L516.778 12.6729C517.072 14.5517 517.221 15.5876 517.225 15.7809L517.458 17.8058C517.745 20.9893 517.911 23.7403 517.956 26.0588C517.467 28.2426 517.087 29.8687 516.818 30.9369L516.456 32.1761C516.141 32.5688 515.834 32.9532 515.536 33.3295C515.237 33.7057 515.072 33.9344 515.042 34.0155C515.011 34.0805 514.892 34.2036 514.686 34.3848C514.48 34.5498 514.345 34.6491 514.281 34.6825C514.234 34.6996 514.002 34.8249 513.588 35.0584C513.19 35.2755 512.799 35.4924 512.417 35.7092C509.957 35.9341 507.932 36.1746 506.343 36.4309Z" fill="#FF7F3E"/>
</svg>
