<svg width="217" height="53" viewBox="0 0 217 53" fill="none" xmlns="http://www.w3.org/2000/svg">
<path d="M8.2361 40.9775C7.92944 40.9638 7.4891 40.908 6.91508 40.8101L2.78728 40.3547L1.29256 39.8271C0.756227 39.6947 0.470024 39.6277 0.433946 39.6261C0.601032 33.4521 0.858043 25.4655 1.20498 15.6665C1.44407 10.309 1.64082 6.30522 1.79524 3.65515L10.3035 3.76373L13.9636 3.7644C15.4418 4.6618 18.3599 6.10244 22.7177 8.0863C22.9915 10.0506 23.4583 12.3488 24.118 14.981L23.4984 16.7156L22.885 20.1315L15.32 24.4029C14.861 24.5631 14.0983 24.8454 13.0319 25.2497C11.9836 25.6548 11.1102 25.9863 10.4119 26.2443C9.73236 26.4851 9.39382 26.5785 9.39623 26.5244C9.37819 26.5236 9.35033 26.5404 9.31264 26.5749C9.27576 26.5913 9.2483 26.5991 9.23026 26.5983C9.18196 27.6806 9.00008 30.3385 8.68463 34.572C8.38722 38.8062 8.23771 40.9414 8.2361 40.9775ZM9.34806 20.3136L12.1551 19.3815L16.5111 17.7594C16.5369 17.1822 16.5462 16.568 16.5391 15.917C16.5509 15.2488 16.5508 14.6433 16.5389 14.1005C16.5278 13.5397 16.5142 13.033 16.4983 12.5804C16.5012 12.1106 16.491 11.7306 16.4678 11.4404C16.4626 11.151 16.4605 10.9972 16.4613 10.9792C14.2053 10.4989 11.9072 10.1524 9.56702 9.93949C9.52999 10.7693 9.47534 12.6014 9.40307 15.4359C9.3308 18.2704 9.31246 19.8963 9.34806 20.3136ZM30.993 41.9931L25.8374 39.0518L24.6997 35.9916L24.5738 17.5499L25.6573 14.5346L28.8994 11.7512C30.0767 11.6953 31.5177 11.6059 33.2221 11.4832C34.9455 11.3432 36.4684 11.2394 37.7908 11.1719C39.1313 11.1052 40.4706 11.0656 41.8087 11.053L45.9332 13.406C45.966 13.4798 46.2579 14.026 46.8089 15.0447L48.6898 18.4634C48.9966 21.7125 49.184 24.1971 49.2518 25.9172C49.3197 27.6373 49.3484 30.2323 49.3382 33.7022L49.3394 36.7116L47.6563 40.4051L45.9635 41.2784C45.4921 41.3116 43.1833 41.4074 39.0372 41.5658C34.891 41.7242 32.2096 41.8666 30.993 41.9931ZM32.5318 34.85L36.0945 34.6023L38.7631 34.3418L41.1635 34.0151L41.1072 32.8468C40.7853 26.2894 40.6995 22.1375 40.8497 20.3909L40.857 20.2286C40.8578 20.2106 40.6789 19.9676 40.3202 19.4997C39.9803 19.0146 39.8108 18.7631 39.8116 18.745L32.2801 20.4423L32.2236 20.494L31.974 23.655C31.9734 24.884 32.0115 26.8649 32.0884 29.5976C32.1833 32.3311 32.3003 33.963 32.4393 34.4934C32.4557 34.5303 32.4709 34.5942 32.4849 34.6852C32.4997 34.7582 32.5154 34.8131 32.5318 34.85ZM70.9482 45.8367C70.3677 43.8587 69.9438 42.4209 69.6766 41.5234C69.4094 40.6258 69.1941 39.9835 69.0306 39.5967C68.8859 39.1926 68.7557 38.8705 68.6399 38.6303C68.5249 38.3722 68.2739 37.7193 67.8869 36.6718C67.4998 35.6243 66.9948 34.1829 66.3718 32.3476C66.3734 32.3115 66.3562 32.2927 66.3201 32.2911C64.9306 32.6448 63.4358 32.9305 61.8355 33.1483C61.5839 36.3543 61.178 39.7794 60.6178 43.4236C60.5825 43.4039 60.5112 43.3827 60.4037 43.3598C60.2963 43.3369 60.2159 43.3153 60.1626 43.2948C59.5361 43.1584 58.5013 43.058 57.0582 42.9936C56.3366 42.9614 55.7406 42.9529 55.2699 42.968C54.8182 42.9659 54.4833 42.9781 54.2652 43.0045C54.0651 43.0317 53.6556 43.0948 53.0367 43.1937C52.4358 43.2934 51.9078 43.3783 51.4528 43.4484L51.3914 40.5718C51.8747 35.0083 52.2532 29.16 52.5269 23.0268C52.5776 21.8904 52.6645 19.3367 52.7874 15.3658C52.9104 11.3948 52.97 9.04779 52.9661 8.32463L54.7935 8.08084L65.3782 7.22473C66.499 7.22052 68.5047 7.43655 71.3953 7.87282C72.6515 8.07348 73.8088 8.46854 74.8669 9.05801C75.9431 9.64827 76.8341 10.3387 77.5399 11.1294C78.2637 11.9208 78.8667 12.7882 79.3487 13.7315C79.8488 14.6756 80.205 15.6043 80.4173 16.5175C80.6484 17.4134 80.7553 18.2587 80.7379 19.0532L77.9047 25.4336C77.1297 26.1943 76.2037 26.894 75.1269 27.5328C76.0302 31.1881 76.8059 34.2592 77.454 36.7463C78.103 39.2153 78.5352 40.8704 78.7507 41.7114C78.9851 42.5352 79.1549 43.1845 79.2603 43.6591C78.8013 43.8194 77.4769 44.1308 75.2873 44.5934C73.1158 45.0568 71.7063 45.4548 71.0588 45.7874C71.0408 45.7866 71.0223 45.7948 71.0035 45.812C70.9847 45.8293 70.9662 45.8375 70.9482 45.8367ZM61.7093 26.2562C62.4281 25.9449 63.21 25.6364 64.0551 25.3307C64.901 25.0069 65.8473 24.6605 66.894 24.2915C67.9407 23.9225 68.7489 23.6333 69.3186 23.4237C70.1393 22.4482 70.9348 21.2275 71.7052 19.7617C71.486 19.4085 70.7574 18.3186 69.5195 16.492C68.8825 16.5901 67.9597 16.6122 66.7511 16.5583C64.9653 16.4786 63.1179 16.36 61.209 16.2025C61.4334 18.8695 61.6002 22.2207 61.7093 26.2562ZM88.1417 44.5435L88.2214 42.7576C88.3046 39.273 88.2298 36.4952 87.9968 34.4243C88.0348 32.7631 88.0658 30.0442 88.0897 26.2677C88.1137 22.4912 88.1617 19.5924 88.2338 17.5712C85.1247 17.5771 82.8306 17.547 81.3514 17.481C81.459 16.6905 81.6294 15.5052 81.8626 13.925C82.1138 12.3457 82.2932 11.1607 82.4008 10.3703C82.9684 10.6125 84.1451 10.7734 85.9309 10.8531C86.1457 10.8989 86.4787 10.9318 86.9296 10.9519C87.1461 10.9616 88.315 11.0951 90.4363 11.3524C92.5757 11.6106 93.9881 11.7549 94.6735 11.7855C96.1888 11.8532 98.501 11.884 101.61 11.8782C101.737 11.8658 101.927 11.8562 102.181 11.8494C102.434 11.8427 102.615 11.8327 102.724 11.8195C102.749 12.0736 102.776 12.4725 102.806 13.0161C102.837 13.5416 102.865 13.9405 102.889 14.2127C103.033 15.8458 103.123 17.0699 103.158 17.8848C103.15 18.0832 102.442 18.1511 101.035 18.0883C99.6096 18.0247 98.1591 17.9238 96.6832 17.7856L96.6264 19.0574C96.6308 19.3648 96.6287 19.8166 96.6202 20.4127C96.6124 20.9907 96.5853 22.4084 96.5388 24.6656C96.5111 26.9056 96.4778 29.6786 96.4387 32.9845C96.429 33.201 96.4235 33.5261 96.4223 33.9598C96.421 34.3935 96.4151 34.7276 96.4046 34.9622C96.2241 35.7675 95.8345 38.6239 95.236 43.5316C94.5974 43.6658 92.6064 43.9294 89.2632 44.3224C89.1533 44.3536 88.9619 44.3903 88.6889 44.4323C88.4339 44.4752 88.2515 44.5122 88.1417 44.5435ZM111.223 45.5735L110.389 45.4279C109.922 45.3709 109.519 45.2896 109.18 45.1841L109.179 45.2112C107.349 44.8946 106.191 44.7254 105.704 44.7037C105.325 44.6868 104.817 44.7274 104.18 44.8255C104.273 42.751 104.378 40.7946 104.497 38.9563C104.616 37.0999 104.717 35.4325 104.801 33.9542L105.342 21.8322C105.387 21.2377 105.469 20.0032 105.589 18.1288C105.709 16.2544 105.825 14.651 105.939 13.3185C106.053 11.9861 106.176 10.8529 106.308 9.91889L106.418 9.86961C106.454 9.88925 106.516 9.91011 106.605 9.93217C106.695 9.95424 106.757 9.97509 106.792 9.99474C107.206 10.0493 108.62 10.3474 111.036 10.889C113.471 11.4134 115.029 11.736 115.71 11.8568C118.616 12.348 122.165 12.8136 126.357 13.2537C126.359 14.031 126.258 16.6925 126.055 21.2383L125.968 21.9664C125.95 21.9656 125.923 21.9734 125.886 21.9899C125.85 21.9882 125.795 21.9948 125.722 22.0097C125.65 22.0064 125.569 22.0028 125.479 21.9988C124.613 21.9602 123.291 21.8108 121.513 21.5507C119.754 21.2914 118.441 21.1425 117.575 21.1038C117.25 21.0893 116.771 21.0951 116.137 21.121C115.522 21.1477 114.96 21.1769 114.452 21.2085C113.945 21.2401 113.673 21.255 113.637 21.2534C113.634 22.1389 113.58 23.7452 113.476 26.0722C115.703 26.3885 118.13 26.6865 120.757 26.9664C120.548 27.5897 120.281 28.9153 119.956 30.9432C119.63 32.9711 119.422 34.3988 119.331 35.2261L119.326 35.3344C115.574 35.1669 113.371 35.1048 112.719 35.148L112.556 35.1407C112.053 39.5465 111.631 42.9167 111.292 45.2513L111.323 45.1713C111.301 45.2607 111.289 45.3054 111.289 45.3054C111.288 45.3415 111.277 45.3862 111.256 45.4395C111.236 45.4928 111.225 45.5375 111.223 45.5735ZM133.006 46.5457L127.851 43.6044L126.713 40.5442L126.587 22.1025L127.67 19.0872L130.912 16.3038C132.09 16.2479 133.531 16.1585 135.235 16.0358C136.959 15.8958 138.481 15.7921 139.804 15.7245C141.144 15.6579 142.484 15.6182 143.822 15.6056L147.946 17.9586C147.979 18.0324 148.271 18.5786 148.822 19.5973L150.703 23.016C151.01 26.2651 151.197 28.7497 151.265 30.4698C151.333 32.1899 151.362 34.7849 151.351 38.2548L151.353 41.2642L149.669 44.9577L147.977 45.8311C147.505 45.8642 145.196 45.96 141.05 46.1184C136.904 46.2768 134.223 46.4192 133.006 46.5457ZM134.545 39.4026L138.108 39.1549L140.776 38.8944L143.177 38.5677L143.12 37.3994C142.798 30.842 142.713 26.6901 142.863 24.9436L142.87 24.7812C142.871 24.7632 142.692 24.5202 142.333 24.0523C141.993 23.5672 141.824 23.3157 141.825 23.2976L134.293 24.9949L134.237 25.0466L133.987 28.2076C133.987 29.4366 134.025 31.4175 134.102 34.1502C134.196 36.8837 134.313 38.5156 134.452 39.046C134.469 39.0829 134.484 39.1468 134.498 39.2378C134.513 39.3108 134.528 39.3657 134.545 39.4026ZM173.417 40.1884L173.8 40.0971L174.646 39.9722C174.684 39.9377 174.757 39.9229 174.865 39.9277L174.653 41.0298C174.503 42.3607 174.388 43.3315 174.306 43.9424C174.243 44.5541 174.2 44.9137 174.177 45.0211C174.155 45.1105 174.135 45.1548 174.117 45.154C174.15 45.2278 174.029 46.7045 173.756 49.5843C173.125 49.5561 172.648 49.5167 172.325 49.4662C171.678 49.3831 169.613 49.0831 166.129 48.5661C162.664 48.05 159.741 47.7388 157.359 47.6325C156.494 47.5939 155.139 47.5696 153.296 47.5596C153.526 46.0516 153.789 43.1985 154.085 39.0003C154.398 31.9652 154.513 27.777 154.428 26.4357C154.362 25.0772 154.479 21.0517 154.778 14.3594C155.156 14.3763 156.772 14.4213 159.625 14.4944C162.495 14.5682 164.246 14.6193 164.877 14.6475C164.722 16.5203 164.62 17.5731 164.574 17.806C164.565 18.0044 164.455 19.2467 164.245 21.5328C164.053 23.8016 163.931 25.3235 163.878 26.0983C163.949 27.7463 163.938 29.6165 163.845 31.709C163.667 35.6955 163.533 38.3013 163.442 39.5264C164.019 39.5521 165.369 39.6666 167.493 39.8698C169.617 40.0731 170.886 40.1839 171.301 40.2024C171.68 40.2193 172.286 40.2102 173.119 40.1751L173.417 40.1884ZM178.79 18.2235C178.843 16.6353 178.799 15.1964 178.657 13.9068C178.517 12.5992 178.44 11.2763 178.428 9.93824C178.465 9.90377 178.529 9.88855 178.62 9.89257C181.398 9.18516 184.341 8.64774 187.449 8.28031C187.473 8.5525 187.545 9.16123 187.665 10.1065C187.805 11.0345 187.924 11.9978 188.024 12.9964C188.124 13.9949 188.19 14.9468 188.222 15.852C187.711 15.9737 186.797 16.195 185.481 16.5159C184.166 16.8367 182.932 17.1432 181.78 17.4352C180.629 17.7092 179.633 17.972 178.79 18.2235ZM177.708 48.5406C177.815 46.1415 177.935 42.6494 178.067 38.0643C178.2 33.4612 178.312 29.3452 178.401 25.7162C178.491 22.0872 178.538 20.2276 178.542 20.1374C179.079 20.2518 179.393 20.3109 179.483 20.315C180.579 20.4543 181.451 20.5564 182.099 20.6215C182.766 20.6693 183.19 20.6882 183.371 20.6783C183.57 20.6691 183.957 20.7134 184.531 20.8114C185.105 20.8912 185.976 21.0385 187.141 21.2532C187.211 21.2925 187.328 21.3158 187.49 21.323C187.412 26.3081 187.355 29.2156 187.318 30.0453C187.311 30.2077 186.99 36.1851 186.355 47.9776C186.263 48.0096 186.135 48.0401 185.971 48.0689C185.807 48.0977 185.433 48.1804 184.849 48.317C184.283 48.4364 183.589 48.5862 182.768 48.7664C182.481 48.7175 181.607 48.6604 180.146 48.5952C178.775 48.534 177.962 48.5158 177.708 48.5406ZM196.46 49.3775L191.305 46.4362L190.167 43.376L190.041 24.9343L191.125 21.919L194.367 19.1356C195.544 19.0797 196.985 18.9904 198.69 18.8676C200.413 18.7276 201.936 18.6239 203.258 18.5564C204.599 18.4897 205.938 18.45 207.276 18.4374L211.401 20.7905C211.433 20.8642 211.725 21.4105 212.276 22.4292L214.157 25.8479C214.464 29.0969 214.651 31.5815 214.719 33.3016C214.787 35.0217 214.816 37.6167 214.806 41.0866L214.807 44.0961L213.124 47.7895L211.431 48.6629C210.96 48.6961 208.651 48.7918 204.505 48.9502C200.358 49.1086 197.677 49.251 196.46 49.3775ZM197.999 42.2344L201.562 41.9867L204.231 41.7262L206.631 41.3996L206.575 40.2312C206.253 33.6739 206.167 29.5219 206.317 27.7754L206.324 27.613C206.325 27.595 206.146 27.352 205.788 26.8842C205.448 26.3991 205.278 26.1475 205.279 26.1294L197.748 27.8267L197.691 27.8784L197.441 31.0394C197.441 32.2684 197.479 34.2493 197.556 36.982C197.651 39.7155 197.768 41.3474 197.907 41.8778C197.923 41.9147 197.938 41.9786 197.952 42.0696C197.967 42.1426 197.983 42.1975 197.999 42.2344Z" fill="#FF7F3E"/>
</svg>
